# Tiled2Unity generated file. Do not modify by hand.
# Wavefront file for 'test-tile-map_mesh_0001.obj'

# Vertices (Count = 184)
v -3 -38 0
v -4 -38 0
v -4 -37 0
v -3 -37 0
v -4 -38 0
v -5 -38 0
v -5 -37 0
v -4 -37 0
v -5 -38 0
v -6 -38 0
v -6 -37 0
v -5 -37 0
v -6 -38 0
v -7 -38 0
v -7 -37 0
v -6 -37 0
v -7 -38 0
v -8 -38 0
v -8 -37 0
v -7 -37 0
v -3 -39 0
v -4 -39 0
v -4 -38 0
v -3 -38 0
v -4 -39 0
v -5 -39 0
v -5 -38 0
v -4 -38 0
v -5 -39 0
v -6 -39 0
v -6 -38 0
v -5 -38 0
v -6 -39 0
v -7 -39 0
v -7 -38 0
v -6 -38 0
v -7 -39 0
v -8 -39 0
v -8 -38 0
v -7 -38 0
v -3 -40 0
v -4 -40 0
v -4 -39 0
v -3 -39 0
v -4 -40 0
v -5 -40 0
v -5 -39 0
v -4 -39 0
v -5 -40 0
v -6 -40 0
v -6 -39 0
v -5 -39 0
v -6 -40 0
v -7 -40 0
v -7 -39 0
v -6 -39 0
v -7 -40 0
v -8 -40 0
v -8 -39 0
v -7 -39 0
v -3 -41 0
v -4 -41 0
v -4 -40 0
v -3 -40 0
v -4 -41 0
v -5 -41 0
v -5 -40 0
v -4 -40 0
v -5 -41 0
v -6 -41 0
v -6 -40 0
v -5 -40 0
v -6 -41 0
v -7 -41 0
v -7 -40 0
v -6 -40 0
v -7 -41 0
v -8 -41 0
v -8 -40 0
v -7 -40 0
v -3 -42 0
v -4 -42 0
v -4 -41 0
v -3 -41 0
v -4 -42 0
v -5 -42 0
v -5 -41 0
v -4 -41 0
v -5 -42 0
v -6 -42 0
v -6 -41 0
v -5 -41 0
v -6 -42 0
v -7 -42 0
v -7 -41 0
v -6 -41 0
v -7 -42 0
v -8 -42 0
v -8 -41 0
v -7 -41 0
v -9 -42 0
v -10 -42 0
v -10 -41 0
v -9 -41 0
v -10 -42 0
v -11 -42 0
v -11 -41 0
v -10 -41 0
v -11 -42 0
v -12 -42 0
v -12 -41 0
v -11 -41 0
v -3 -43 0
v -4 -43 0
v -4 -42 0
v -3 -42 0
v -4 -43 0
v -5 -43 0
v -5 -42 0
v -4 -42 0
v -5 -43 0
v -6 -43 0
v -6 -42 0
v -5 -42 0
v -9 -43 0
v -10 -43 0
v -10 -42 0
v -9 -42 0
v -10 -43 0
v -11 -43 0
v -11 -42 0
v -10 -42 0
v -11 -43 0
v -12 -43 0
v -12 -42 0
v -11 -42 0
v -3 -44 0
v -4 -44 0
v -4 -43 0
v -3 -43 0
v -4 -44 0
v -5 -44 0
v -5 -43 0
v -4 -43 0
v -5 -44 0
v -6 -44 0
v -6 -43 0
v -5 -43 0
v -9 -44 0
v -10 -44 0
v -10 -43 0
v -9 -43 0
v -10 -44 0
v -11 -44 0
v -11 -43 0
v -10 -43 0
v -11 -44 0
v -12 -44 0
v -12 -43 0
v -11 -43 0
v -3 -45 0
v -4 -45 0
v -4 -44 0
v -3 -44 0
v -4 -45 0
v -5 -45 0
v -5 -44 0
v -4 -44 0
v -5 -45 0
v -6 -45 0
v -6 -44 0
v -5 -44 0
v -9 -45 0
v -10 -45 0
v -10 -44 0
v -9 -44 0
v -10 -45 0
v -11 -45 0
v -11 -44 0
v -10 -44 0
v -11 -45 0
v -12 -45 0
v -12 -44 0
v -11 -44 0

# Texture cooridinates (Count = 62)
vt 0.1176471 0.875
vt 0.1764706 0.875
vt 0.1764706 1
vt 0.1176471 1
vt 0.2352941 0.875
vt 0.2352941 1
vt 0.2941177 0.875
vt 0.2941177 1
vt 0.3529412 0.875
vt 0.3529412 1
vt 0.4117647 0.875
vt 0.4117647 1
vt 0.1176471 0.75
vt 0.1764706 0.75
vt 0.2352941 0.75
vt 0.2941177 0.75
vt 0.3529412 0.75
vt 0.4117647 0.75
vt 0.1176471 0.625
vt 0.1764706 0.625
vt 0.2352941 0.625
vt 0.2941177 0.625
vt 0.3529412 0.625
vt 0.4117647 0.625
vt 0.1176471 0.5
vt 0.1764706 0.5
vt 0.2352941 0.5
vt 0.2941177 0.5
vt 0.3529412 0.5
vt 0.4117647 0.5
vt 0.1176471 0.375
vt 0.1764706 0.375
vt 0.2352941 0.375
vt 0.2941177 0.375
vt 0.3529412 0.375
vt 0.4117647 0.375
vt 0.5882353 0.625
vt 0.6470588 0.625
vt 0.6470588 0.75
vt 0.5882353 0.75
vt 0.7058824 0.625
vt 0.7058824 0.75
vt 0.7647059 0.625
vt 0.7647059 0.75
vt 0.1176471 0.25
vt 0.1764706 0.25
vt 0.2352941 0.25
vt 0.2941177 0.25
vt 0.5882353 0.5
vt 0.6470588 0.5
vt 0.7058824 0.875
vt 0.6470588 0.875
vt 0.7058824 0.5
vt 0.7647059 0.5
vt 0.1176471 0.125
vt 0.1764706 0.125
vt 0.2352941 0.125
vt 0.2941177 0.125
vt 0.1176471 0
vt 0.1764706 0
vt 0.2352941 0
vt 0.2941177 0

# Normal
vn 0 0 -1

# Mesh description
g test-tile-map_mesh_0001

# Faces
f 1/1/1 2/2/1 3/3/1 4/4/1
f 5/2/1 6/5/1 7/6/1 8/3/1
f 9/5/1 10/7/1 11/8/1 12/6/1
f 13/7/1 14/9/1 15/10/1 16/8/1
f 17/9/1 18/11/1 19/12/1 20/10/1
f 21/13/1 22/14/1 23/2/1 24/1/1
f 25/14/1 26/15/1 27/5/1 28/2/1
f 29/15/1 30/16/1 31/7/1 32/5/1
f 33/16/1 34/17/1 35/9/1 36/7/1
f 37/17/1 38/18/1 39/11/1 40/9/1
f 41/19/1 42/20/1 43/14/1 44/13/1
f 45/20/1 46/21/1 47/15/1 48/14/1
f 49/21/1 50/22/1 51/16/1 52/15/1
f 53/22/1 54/23/1 55/17/1 56/16/1
f 57/23/1 58/24/1 59/18/1 60/17/1
f 61/25/1 62/26/1 63/20/1 64/19/1
f 65/26/1 66/27/1 67/21/1 68/20/1
f 69/27/1 70/28/1 71/22/1 72/21/1
f 73/28/1 74/29/1 75/23/1 76/22/1
f 77/29/1 78/30/1 79/24/1 80/23/1
f 81/31/1 82/32/1 83/26/1 84/25/1
f 85/32/1 86/33/1 87/27/1 88/26/1
f 89/33/1 90/34/1 91/28/1 92/27/1
f 93/34/1 94/35/1 95/29/1 96/28/1
f 97/35/1 98/36/1 99/30/1 100/29/1
f 101/37/1 102/38/1 103/39/1 104/40/1
f 105/38/1 106/41/1 107/42/1 108/39/1
f 109/41/1 110/43/1 111/44/1 112/42/1
f 113/45/1 114/46/1 115/32/1 116/31/1
f 117/46/1 118/47/1 119/33/1 120/32/1
f 121/47/1 122/48/1 123/34/1 124/33/1
f 125/49/1 126/50/1 127/38/1 128/37/1
f 129/39/1 130/42/1 131/51/1 132/52/1
f 133/53/1 134/54/1 135/43/1 136/41/1
f 137/55/1 138/56/1 139/46/1 140/45/1
f 141/56/1 142/57/1 143/47/1 144/46/1
f 145/57/1 146/58/1 147/48/1 148/47/1
f 149/49/1 150/50/1 151/38/1 152/37/1
f 153/39/1 154/42/1 155/51/1 156/52/1
f 157/53/1 158/54/1 159/43/1 160/41/1
f 161/59/1 162/60/1 163/56/1 164/55/1
f 165/60/1 166/61/1 167/57/1 168/56/1
f 169/61/1 170/62/1 171/58/1 172/57/1
f 173/49/1 174/50/1 175/38/1 176/37/1
f 177/39/1 178/42/1 179/51/1 180/52/1
f 181/53/1 182/54/1 183/43/1 184/41/1

