# Tiled2Unity generated file. Do not modify by hand.
# Wavefront file for 'test-tile-map_mesh_0002.obj'

# Vertices (Count = 228)
v -14 -37 0
v -15 -37 0
v -15 -36 0
v -14 -36 0
v -14 -38 0
v -15 -38 0
v -15 -37 0
v -14 -37 0
v -14 -39 0
v -15 -39 0
v -15 -38 0
v -14 -38 0
v -10 -40 0
v -11 -40 0
v -11 -39 0
v -10 -39 0
v -11 -40 0
v -12 -40 0
v -12 -39 0
v -11 -39 0
v -12 -40 0
v -13 -40 0
v -13 -39 0
v -12 -39 0
v -13 -40 0
v -14 -40 0
v -14 -39 0
v -13 -39 0
v -14 -40 0
v -15 -40 0
v -15 -39 0
v -14 -39 0
v -19 -40 0
v -20 -40 0
v -20 -39 0
v -19 -39 0
v -20 -40 0
v -21 -40 0
v -21 -39 0
v -20 -39 0
v -21 -40 0
v -22 -40 0
v -22 -39 0
v -21 -39 0
v -19 -41 0
v -20 -41 0
v -20 -40 0
v -19 -40 0
v -20 -41 0
v -21 -41 0
v -21 -40 0
v -20 -40 0
v -21 -41 0
v -22 -41 0
v -22 -40 0
v -21 -40 0
v -19 -42 0
v -20 -42 0
v -20 -41 0
v -19 -41 0
v -20 -42 0
v -21 -42 0
v -21 -41 0
v -20 -41 0
v -21 -42 0
v -22 -42 0
v -22 -41 0
v -21 -41 0
v -19 -43 0
v -20 -43 0
v -20 -42 0
v -19 -42 0
v -20 -43 0
v -21 -43 0
v -21 -42 0
v -20 -42 0
v -21 -43 0
v -22 -43 0
v -22 -42 0
v -21 -42 0
v -8 -44 0
v -9 -44 0
v -9 -43 0
v -8 -43 0
v -9 -44 0
v -10 -44 0
v -10 -43 0
v -9 -43 0
v -10 -44 0
v -11 -44 0
v -11 -43 0
v -10 -43 0
v -14 -44 0
v -15 -44 0
v -15 -43 0
v -14 -43 0
v -15 -44 0
v -16 -44 0
v -16 -43 0
v -15 -43 0
v -16 -44 0
v -17 -44 0
v -17 -43 0
v -16 -43 0
v -19 -44 0
v -20 -44 0
v -20 -43 0
v -19 -43 0
v -20 -44 0
v -21 -44 0
v -21 -43 0
v -20 -43 0
v -21 -44 0
v -22 -44 0
v -22 -43 0
v -21 -43 0
v -8 -45 0
v -9 -45 0
v -9 -44 0
v -8 -44 0
v -9 -45 0
v -10 -45 0
v -10 -44 0
v -9 -44 0
v -10 -45 0
v -11 -45 0
v -11 -44 0
v -10 -44 0
v -14 -45 0
v -15 -45 0
v -15 -44 0
v -14 -44 0
v -15 -45 0
v -16 -45 0
v -16 -44 0
v -15 -44 0
v -16 -45 0
v -17 -45 0
v -17 -44 0
v -16 -44 0
v -19 -45 0
v -20 -45 0
v -20 -44 0
v -19 -44 0
v -20 -45 0
v -21 -45 0
v -21 -44 0
v -20 -44 0
v -21 -45 0
v -22 -45 0
v -22 -44 0
v -21 -44 0
v -3 -46 0
v -4 -46 0
v -4 -45 0
v -3 -45 0
v -4 -46 0
v -5 -46 0
v -5 -45 0
v -4 -45 0
v -5 -46 0
v -6 -46 0
v -6 -45 0
v -5 -45 0
v -6 -46 0
v -7 -46 0
v -7 -45 0
v -6 -45 0
v -7 -46 0
v -8 -46 0
v -8 -45 0
v -7 -45 0
v -8 -46 0
v -9 -46 0
v -9 -45 0
v -8 -45 0
v -9 -46 0
v -10 -46 0
v -10 -45 0
v -9 -45 0
v -10 -46 0
v -11 -46 0
v -11 -45 0
v -10 -45 0
v -11 -46 0
v -12 -46 0
v -12 -45 0
v -11 -45 0
v -12 -46 0
v -13 -46 0
v -13 -45 0
v -12 -45 0
v -13 -46 0
v -14 -46 0
v -14 -45 0
v -13 -45 0
v -14 -46 0
v -15 -46 0
v -15 -45 0
v -14 -45 0
v -15 -46 0
v -16 -46 0
v -16 -45 0
v -15 -45 0
v -16 -46 0
v -17 -46 0
v -17 -45 0
v -16 -45 0
v -17 -46 0
v -18 -46 0
v -18 -45 0
v -17 -45 0
v -18 -46 0
v -19 -46 0
v -19 -45 0
v -18 -45 0
v -19 -46 0
v -20 -46 0
v -20 -45 0
v -19 -45 0
v -20 -46 0
v -21 -46 0
v -21 -45 0
v -20 -45 0
v -21 -46 0
v -22 -46 0
v -22 -45 0
v -21 -45 0

# Texture cooridinates (Count = 18)
vt 0.4705882 0.875
vt 0.5294118 0.875
vt 0.5294118 1
vt 0.4705882 1
vt 0.5882353 0.875
vt 0.6470588 0.875
vt 0.6470588 1
vt 0.5882353 1
vt 0.7058824 0.875
vt 0.7058824 1
vt 0.7647059 0.875
vt 0.7647059 1
vt 0.5882353 0.75
vt 0.6470588 0.75
vt 0.7058824 0.75
vt 0.7647059 0.75
vt 0.4117647 0.875
vt 0.4117647 1

# Normal
vn 0 0 -1

# Mesh description
g test-tile-map_mesh_0002

# Faces
f 1/1/1 2/2/1 3/3/1 4/4/1
f 5/1/1 6/2/1 7/3/1 8/4/1
f 9/1/1 10/2/1 11/3/1 12/4/1
f 13/1/1 14/2/1 15/3/1 16/4/1
f 17/1/1 18/2/1 19/3/1 20/4/1
f 21/1/1 22/2/1 23/3/1 24/4/1
f 25/1/1 26/2/1 27/3/1 28/4/1
f 29/1/1 30/2/1 31/3/1 32/4/1
f 33/5/1 34/6/1 35/7/1 36/8/1
f 37/6/1 38/9/1 39/10/1 40/7/1
f 41/9/1 42/11/1 43/12/1 44/10/1
f 45/13/1 46/14/1 47/6/1 48/5/1
f 49/14/1 50/15/1 51/9/1 52/6/1
f 53/15/1 54/16/1 55/11/1 56/9/1
f 57/13/1 58/14/1 59/6/1 60/5/1
f 61/14/1 62/15/1 63/9/1 64/6/1
f 65/15/1 66/16/1 67/11/1 68/9/1
f 69/13/1 70/14/1 71/6/1 72/5/1
f 73/14/1 74/15/1 75/9/1 76/6/1
f 77/15/1 78/16/1 79/11/1 80/9/1
f 81/5/1 82/6/1 83/7/1 84/8/1
f 85/6/1 86/9/1 87/10/1 88/7/1
f 89/9/1 90/11/1 91/12/1 92/10/1
f 93/5/1 94/6/1 95/7/1 96/8/1
f 97/6/1 98/9/1 99/10/1 100/7/1
f 101/9/1 102/11/1 103/12/1 104/10/1
f 105/13/1 106/14/1 107/6/1 108/5/1
f 109/14/1 110/15/1 111/9/1 112/6/1
f 113/15/1 114/16/1 115/11/1 116/9/1
f 117/13/1 118/14/1 119/6/1 120/5/1
f 121/14/1 122/15/1 123/9/1 124/6/1
f 125/15/1 126/16/1 127/11/1 128/9/1
f 129/13/1 130/14/1 131/6/1 132/5/1
f 133/14/1 134/15/1 135/9/1 136/6/1
f 137/15/1 138/16/1 139/11/1 140/9/1
f 141/13/1 142/14/1 143/6/1 144/5/1
f 145/14/1 146/15/1 147/9/1 148/6/1
f 149/15/1 150/16/1 151/11/1 152/9/1
f 153/17/1 154/1/1 155/4/1 156/18/1
f 157/17/1 158/1/1 159/4/1 160/18/1
f 161/17/1 162/1/1 163/4/1 164/18/1
f 165/17/1 166/1/1 167/4/1 168/18/1
f 169/17/1 170/1/1 171/4/1 172/18/1
f 173/17/1 174/1/1 175/4/1 176/18/1
f 177/17/1 178/1/1 179/4/1 180/18/1
f 181/17/1 182/1/1 183/4/1 184/18/1
f 185/17/1 186/1/1 187/4/1 188/18/1
f 189/17/1 190/1/1 191/4/1 192/18/1
f 193/17/1 194/1/1 195/4/1 196/18/1
f 197/6/1 198/9/1 199/10/1 200/7/1
f 201/6/1 202/9/1 203/10/1 204/7/1
f 205/6/1 206/9/1 207/10/1 208/7/1
f 209/6/1 210/9/1 211/10/1 212/7/1
f 213/9/1 214/11/1 215/12/1 216/10/1
f 217/13/1 218/14/1 219/6/1 220/5/1
f 221/14/1 222/15/1 223/9/1 224/6/1
f 225/15/1 226/16/1 227/11/1 228/9/1

