# Tiled2Unity generated file. Do not modify by hand.
# Wavefront file for 'test-tile-map_mesh_0003.obj'

# Vertices (Count = 60)
v -8 -38 0
v -9 -38 0
v -9 -37 0
v -8 -37 0
v -9 -38 0
v -10 -38 0
v -10 -37 0
v -9 -37 0
v -10 -38 0
v -11 -38 0
v -11 -37 0
v -10 -37 0
v -8 -39 0
v -9 -39 0
v -9 -38 0
v -8 -38 0
v -9 -39 0
v -10 -39 0
v -10 -38 0
v -9 -38 0
v -10 -39 0
v -11 -39 0
v -11 -38 0
v -10 -38 0
v -8 -44 0
v -9 -44 0
v -9 -43 0
v -8 -43 0
v -9 -44 0
v -10 -44 0
v -10 -43 0
v -9 -43 0
v -3 -45 0
v -4 -45 0
v -4 -44 0
v -3 -44 0
v -4 -45 0
v -5 -45 0
v -5 -44 0
v -4 -44 0
v -5 -45 0
v -6 -45 0
v -6 -44 0
v -5 -44 0
v -8 -45 0
v -9 -45 0
v -9 -44 0
v -8 -44 0
v -9 -45 0
v -10 -45 0
v -10 -44 0
v -9 -44 0
v -10 -45 0
v -11 -45 0
v -11 -44 0
v -10 -44 0
v -11 -45 0
v -12 -45 0
v -12 -44 0
v -11 -44 0

# Texture cooridinates (Count = 25)
vt 0 0.875
vt 0.05882353 0.875
vt 0.05882353 1
vt 0 1
vt 0.1176471 0.875
vt 0.1176471 1
vt 0.05882353 0.75
vt 0.1176471 0.75
vt 0 0.75
vt 0.8235294 0.625
vt 0.8823529 0.625
vt 0.8823529 0.75
vt 0.8235294 0.75
vt 0.9411765 0.625
vt 0.9411765 0.75
vt 1 0.625
vt 1 0.75
vt 0.8235294 0.25
vt 0.8823529 0.25
vt 0.8823529 0.375
vt 0.8235294 0.375
vt 0.8823529 0.875
vt 0.9411765 0.875
vt 0.9411765 1
vt 0.8823529 1

# Normal
vn 0 0 -1

# Mesh description
g test-tile-map_mesh_0003

# Faces
f 1/1/1 2/2/1 3/3/1 4/4/1
f 5/2/1 6/5/1 7/6/1 8/3/1
f 9/7/1 10/8/1 11/5/1 12/2/1
f 13/9/1 14/7/1 15/2/1 16/1/1
f 17/7/1 18/8/1 19/5/1 20/2/1
f 21/2/1 22/5/1 23/8/1 24/7/1
f 25/1/1 26/2/1 27/3/1 28/4/1
f 29/2/1 30/5/1 31/6/1 32/3/1
f 33/10/1 34/11/1 35/12/1 36/13/1
f 37/11/1 38/14/1 39/15/1 40/12/1
f 41/14/1 42/16/1 43/17/1 44/15/1
f 45/9/1 46/7/1 47/2/1 48/1/1
f 49/7/1 50/8/1 51/5/1 52/2/1
f 53/18/1 54/19/1 55/20/1 56/21/1
f 57/22/1 58/23/1 59/24/1 60/25/1

