# Tiled2Unity generated file. Do not modify by hand.
# Wavefront file for 'test-tile-map_mesh_0001.obj'

# Vertices (Count = 56)
v 0 -44 0
v -1 -44 0
v -1 -43 0
v 0 -43 0
v -1 -44 0
v -2 -44 0
v -2 -43 0
v -1 -43 0
v -2 -44 0
v -3 -44 0
v -3 -43 0
v -2 -43 0
v -3 -44 0
v -4 -44 0
v -4 -43 0
v -3 -43 0
v -4 -44 0
v -5 -44 0
v -5 -43 0
v -4 -43 0
v -5 -44 0
v -6 -44 0
v -6 -43 0
v -5 -43 0
v -6 -44 0
v -7 -44 0
v -7 -43 0
v -6 -43 0
v -7 -44 0
v -8 -44 0
v -8 -43 0
v -7 -43 0
v -8 -44 0
v -9 -44 0
v -9 -43 0
v -8 -43 0
v -9 -44 0
v -10 -44 0
v -10 -43 0
v -9 -43 0
v -10 -44 0
v -11 -44 0
v -11 -43 0
v -10 -43 0
v -11 -44 0
v -12 -44 0
v -12 -43 0
v -11 -43 0
v -12 -44 0
v -13 -44 0
v -13 -43 0
v -12 -43 0
v -13 -44 0
v -14 -44 0
v -14 -43 0
v -13 -43 0

# Texture cooridinates (Count = 4)
vt 0.4117647 0.875
vt 0.4705882 0.875
vt 0.4705882 1
vt 0.4117647 1

# Normal
vn 0 0 -1

# Mesh description
g test-tile-map_mesh_0001

# Faces
f 1/1/1 2/2/1 3/3/1 4/4/1
f 5/1/1 6/2/1 7/3/1 8/4/1
f 9/1/1 10/2/1 11/3/1 12/4/1
f 13/1/1 14/2/1 15/3/1 16/4/1
f 17/1/1 18/2/1 19/3/1 20/4/1
f 21/1/1 22/2/1 23/3/1 24/4/1
f 25/1/1 26/2/1 27/3/1 28/4/1
f 29/1/1 30/2/1 31/3/1 32/4/1
f 33/1/1 34/2/1 35/3/1 36/4/1
f 37/1/1 38/2/1 39/3/1 40/4/1
f 41/1/1 42/2/1 43/3/1 44/4/1
f 45/1/1 46/2/1 47/3/1 48/4/1
f 49/1/1 50/2/1 51/3/1 52/4/1
f 53/1/1 54/2/1 55/3/1 56/4/1

